<svg width="50" height="50" viewBox="0 0 50 50" fill="none" xmlns="http://www.w3.org/2000/svg">
<path d="M41.6663 8.33342H37.4997V6.25008H42.708C43.2913 6.25008 43.7497 6.70841 43.7497 7.29175V11.4584C43.7497 12.0417 43.2913 12.5001 42.708 12.5001H41.6663V14.5834H39.583V10.4167H41.6663V8.33342ZM39.583 18.7501H41.6663V16.6667H39.583V18.7501ZM35.4163 6.25008H33.333V14.5834H35.4163V6.25008ZM47.9163 31.2501V37.5001C47.9163 38.6459 46.9788 39.5834 45.833 39.5834H43.7497V41.6668C43.7497 43.9793 41.8955 45.8334 39.583 45.8334H10.4163C9.31127 45.8334 8.25146 45.3944 7.47006 44.613C6.68866 43.8316 6.24967 42.7718 6.24967 41.6668V39.5834H4.16634C3.02051 39.5834 2.08301 38.6459 2.08301 37.5001V31.2501C2.08301 30.1043 3.02051 29.1667 4.16634 29.1667H6.24967C6.24967 21.1042 12.7705 14.5834 20.833 14.5834H22.9163V11.9376C21.6663 11.2292 20.833 9.87508 20.833 8.33342C20.833 6.04175 22.708 4.16675 24.9997 4.16675C27.2913 4.16675 29.1663 6.04175 29.1663 8.33342C29.1663 9.87508 28.333 11.2292 27.083 11.9376V14.5834H29.1663C29.8747 14.5834 30.5622 14.6459 31.2497 14.7501V20.8334H41.1247C42.8381 23.274 43.755 26.1847 43.7497 29.1667H45.833C46.9788 29.1667 47.9163 30.1043 47.9163 31.2501ZM20.833 32.2918C20.833 30.9104 20.2843 29.5857 19.3075 28.6089C18.3308 27.6322 17.006 27.0834 15.6247 27.0834C14.2433 27.0834 12.9186 27.6322 11.9418 28.6089C10.9651 29.5857 10.4163 30.9104 10.4163 32.2918C10.4163 33.6731 10.9651 34.9978 11.9418 35.9746C12.9186 36.9514 14.2433 37.5001 15.6247 37.5001C17.006 37.5001 18.3308 36.9514 19.3075 35.9746C20.2843 34.9978 20.833 33.6731 20.833 32.2918ZM39.583 32.2918C39.583 30.9104 39.0343 29.5857 38.0575 28.6089C37.0808 27.6322 35.756 27.0834 34.3747 27.0834C32.9933 27.0834 31.6686 27.6322 30.6918 28.6089C29.7151 29.5857 29.1663 30.9104 29.1663 32.2918C29.1663 33.6731 29.7151 34.9978 30.6918 35.9746C31.6686 36.9514 32.9933 37.5001 34.3747 37.5001C35.756 37.5001 37.0808 36.9514 38.0575 35.9746C39.0343 34.9978 39.583 33.6731 39.583 32.2918ZM35.4163 16.6667H33.333V18.7501H35.4163V16.6667Z" fill="#3A3A3A"/>
</svg>
