<svg width="24" height="28" viewBox="0 0 24 28" fill="none" xmlns="http://www.w3.org/2000/svg">
<path d="M2.36069 1.55517C2.22652 1.55648 2.09357 1.58055 1.96764 1.62633V1.16667C1.96764 0.523833 2.49761 0 3.14799 0H20.4601C21.1105 0 21.6405 0.523833 21.6405 1.16667V1.55517H2.36069ZM22.8208 4.27817H1.18035C0.529976 4.27817 0 4.802 0 5.44483V26.8333C0 27.4762 0.529976 28 1.18035 28H9.79688L11.0929 21.4142H8.44893C8.38873 21.4142 2.36069 21.133 2.36069 21.133L7.83633 20.7515L7.74426 20.3245L5.40953 19.992L7.63094 19.8077L7.48458 19.2838L3.85501 18.739C3.85501 18.739 7.79855 18.3038 7.85875 18.3038H11.6736L11.9652 16.751C12.3063 14.8657 13.0806 13.4762 14.294 12.4425C15.5133 11.4018 17.0607 10.8885 18.941 10.8885C19.7 10.8885 20.1839 11.0647 20.394 11.4287C20.5333 11.6457 20.6313 12.0307 20.7234 12.4308C20.8107 12.8415 20.8886 13.2137 20.8355 13.4843C20.7682 13.8868 20.2913 14.0268 19.4226 14.0268H19.124C17.5577 14.0268 16.6051 14.917 16.2853 16.7218L15.9984 18.3027H17.8162C18.4937 18.3027 18.738 18.7717 18.5503 19.8263C18.3497 20.9242 17.9141 21.413 17.239 21.413H15.4236L14.1299 28H22.8197C23.47 28 24 27.4762 24 26.8333V5.44483C24 5.13562 23.8758 4.83905 23.6547 4.62029C23.4336 4.40153 23.1337 4.27848 22.8208 4.27817ZM22.0335 2.72183C22.0332 2.61889 21.9917 2.52025 21.9181 2.44746C21.8444 2.37467 21.7446 2.33364 21.6405 2.33333H2.36069C2.25655 2.33364 2.15675 2.37467 2.08311 2.44746C2.00946 2.52025 1.96795 2.61889 1.96764 2.72183V3.5H22.0335V2.72183Z" fill="#3A3A3A"/>
</svg>
