<svg width="34" height="34" viewBox="0 0 34 34" fill="none" xmlns="http://www.w3.org/2000/svg">
<path d="M30.3313 27.9454C30.1907 27.9071 30.0203 27.9284 29.8244 28.0007C27.2007 29.2006 24.6494 30.0558 22.1705 30.5621C16.8165 31.6514 11.5989 31.0812 6.52186 28.856C5.11203 28.2348 3.15276 27.1881 0.644044 25.7074C0.579401 25.6564 0.500541 25.6267 0.418301 25.6223C0.333116 25.6181 0.260708 25.6266 0.192559 25.6606C0.124411 25.6947 0.0732992 25.7372 0.0349657 25.7925C-0.00336791 25.8478 -0.0118862 25.9244 0.0179288 26.0223C0.0434845 26.1159 0.107374 26.2222 0.213856 26.3371C0.656822 26.8562 1.20627 27.4093 1.85794 27.9965C2.50961 28.5837 3.37425 29.2474 4.45184 29.9877C5.52944 30.7281 6.65815 31.3876 7.82946 31.962C9.00502 32.5364 10.368 33.0214 11.9226 33.4128C13.4773 33.8043 15.0319 34 16.5823 34C18.1242 34 19.6234 33.8426 21.0758 33.5362C22.5325 33.2256 23.7592 32.8597 24.7601 32.4342C25.7568 32.013 26.6768 31.5407 27.5201 31.0302C28.3635 30.5196 28.9853 30.0856 29.39 29.741C29.7946 29.3921 30.0842 29.1198 30.2503 28.9155C30.4463 28.673 30.5442 28.4645 30.5442 28.2816C30.5485 28.0901 30.4718 27.9795 30.3313 27.9454ZM17.6556 10.0413C17.0082 10.0966 16.2288 10.2157 15.313 10.3944C14.3973 10.5689 13.5497 10.7901 12.766 11.0497C11.9823 11.3092 11.1815 11.6709 10.368 12.1304C9.55021 12.5899 8.85594 13.1175 8.28094 13.7047C7.70594 14.2918 7.23742 15.0279 6.87112 15.9172C6.50482 16.8022 6.32167 17.7765 6.32167 18.8402C6.32167 19.9932 6.52186 21.0186 6.93075 21.9249C7.33538 22.8312 7.87631 23.5417 8.55779 24.0693C9.23502 24.5969 10.006 25.0096 10.8578 25.3117C11.7097 25.6138 12.6126 25.75 13.5497 25.7117C14.4867 25.6734 15.4025 25.5287 16.2927 25.2734C17.1786 25.0224 18.0134 24.6182 18.7886 24.0693C19.5638 23.5205 20.1984 22.8695 20.6968 22.1249C20.8799 22.4057 21.0418 22.6142 21.1866 22.7503L21.5571 23.129C21.8042 23.3801 22.1832 23.7502 22.6944 24.2395C23.2012 24.7288 23.7209 25.2054 24.2405 25.6734L28.6872 21.4228L28.4316 21.2144C28.2485 21.074 28.0312 20.874 27.7842 20.6059C27.5372 20.3421 27.2901 20.0486 27.0516 19.7337C26.8088 19.4188 26.6001 19.0487 26.4255 18.6317C26.2509 18.2147 26.1614 17.8105 26.1614 17.4191V6.23752C26.1614 5.80778 26.0805 5.34401 25.9186 4.84195C25.7525 4.34414 25.4629 3.79952 25.037 3.21236C24.611 2.6252 24.0829 2.09761 23.4525 1.63809C22.8179 1.17858 21.9745 0.787135 20.914 0.472281C19.8577 0.157427 18.6736 0 17.3703 0C16.0371 0 14.7976 0.157427 13.6391 0.463772C12.4849 0.774371 11.4967 1.18709 10.6704 1.70617C9.84836 2.22525 9.14132 2.82518 8.55354 3.5102C7.96576 4.19522 7.52705 4.91002 7.24168 5.65461C6.9563 6.3992 6.81149 7.1523 6.81149 7.9139L12.57 8.42022C12.8043 7.72244 13.1195 7.11826 13.5071 6.59917C13.8989 6.08009 14.2695 5.70567 14.606 5.47166C14.9467 5.23764 15.313 5.05043 15.7006 4.91002C16.0925 4.76962 16.3565 4.69728 16.4928 4.68027C16.6291 4.6675 16.7356 4.66325 16.8166 4.66325C17.9538 4.66325 18.7417 4.99937 19.1847 5.66738C19.4616 6.07158 19.5979 6.68427 19.5979 7.5097V9.91791C18.9505 9.94344 18.303 9.98598 17.6556 10.0413ZM19.6021 16.5043C19.6021 17.2106 19.5084 17.8531 19.3253 18.419C18.9334 19.6571 18.188 20.4357 17.0934 20.7506C16.1393 21.0314 15.2321 20.891 14.3717 20.3336C13.456 19.738 13.0002 18.8955 13.0002 17.8105C13.0002 16.9638 13.2132 16.2405 13.6391 15.6363C14.0651 15.0364 14.6315 14.5854 15.3428 14.2876C16.0541 13.9897 16.7484 13.777 17.4299 13.6536C18.1071 13.526 18.8354 13.4494 19.6021 13.4239V16.5043ZM33.8792 25.818C33.6961 25.5883 33.202 25.4394 32.3928 25.3628C31.5835 25.2862 30.8807 25.2905 30.2759 25.3798C29.6242 25.4564 28.9513 25.6436 28.2612 25.9499C27.567 26.252 27.2646 26.5073 27.3412 26.7073L27.3711 26.7626L27.4094 26.7924L27.469 26.8009H27.6649C27.699 26.8009 27.7416 26.7966 27.8012 26.7924C27.8609 26.7881 27.9162 26.7796 27.9674 26.7754C28.0185 26.7711 28.0909 26.7626 28.1846 26.7584C28.274 26.7541 28.3592 26.7413 28.4401 26.7286C28.4529 26.7286 28.5977 26.7158 28.8788 26.6903C29.16 26.6647 29.3644 26.6477 29.4879 26.635C29.6114 26.6222 29.8201 26.6094 30.1055 26.5967C30.3909 26.5839 30.6209 26.5839 30.7913 26.5967C30.9616 26.6094 31.1533 26.6265 31.3705 26.6435C31.5878 26.6605 31.7624 26.6988 31.8987 26.7584C32.035 26.8137 32.1372 26.886 32.2011 26.9753C32.4226 27.2562 32.38 27.8774 32.0733 28.8432C31.7666 29.809 31.477 30.5792 31.2044 31.1493C31.0852 31.3918 31.0852 31.5407 31.2044 31.6046C31.3237 31.6684 31.4898 31.6088 31.7113 31.4344C32.3757 30.9153 32.9294 30.1324 33.3767 29.0815C33.6365 28.4603 33.8239 27.8135 33.9346 27.137C34.0368 26.4605 34.0198 26.0223 33.8792 25.818Z" fill="#3A3A3A"/>
</svg>
