<svg width="36" height="35" viewBox="0 0 36 35" fill="none" xmlns="http://www.w3.org/2000/svg">
<path d="M28.5897 3.98972C27.7369 4.79856 26.8619 5.58363 25.9657 6.34402C25.2491 6.98457 24.7319 7.36617 24.7319 7.36617L22.0683 12.3187C19.8645 10.1788 16.9559 8.91657 13.8879 8.7686C6.90278 8.43308 0.944311 13.8442 0.608672 20.8318C0.273033 27.8194 5.68544 33.7768 12.6705 34.1123C19.6556 34.4478 25.614 29.0367 25.9497 22.049C26.103 18.8575 25.0481 15.8911 23.2022 13.5652L28.3867 11.3883C28.3867 11.3883 28.816 10.91 29.5223 10.258C30.213 9.58903 31.146 8.7103 32.117 7.8715L34.7547 5.53419L35.9765 4.49695L32.3218 0.472978L31.1723 1.58989C30.466 2.24364 29.5278 3.11668 28.5897 3.98972V3.98972ZM22.3295 21.8752C22.0898 26.866 17.8348 30.7314 12.8444 30.4917C7.85404 30.252 3.98909 25.9966 4.22882 21.0057C4.46855 16.0148 8.72358 12.1494 13.7139 12.3891C18.7043 12.6288 22.5693 16.8843 22.3295 21.8752Z" fill="#3A3A3A"/>
</svg>
